# xmcd
#
# Track frame offsets: 
#        150
#        24302
#        47668
#        68183
#        88818
#        105129
#        129255
#        152257
#        172808
#        193177
#
# Disc length: 2909 seconds
#
# Revision: 0
# Processed by: cddbd v1.5.2PL0 Copyright (c) Steve Scherf et al.
# Submitted via: ExactAudioCopy v1.0b3
#
DISCID=6d0b5b0a
DTITLE=Le Uyen - Phan Chien Ca
DYEAR=1900
DGENRE=
TTITLE0=Di tim que huong
TTITLE1=Tinh ca nguoi mat tri
TTITLE2=Dai bac ru dem
TTITLE3=Ngu ngon mua dong
TTITLE4=Noi vong tay lon
TTITLE5=Ngu di con
TTITLE6=Ba me O Ly
TTITLE7=Hay song gium toi
TTITLE8=Cho nhin que huong sang choi
TTITLE9=Tinh sau
EXTD=
EXTT0=
EXTT1=
EXTT2=
EXTT3=
EXTT4=
EXTT5=
EXTT6=
EXTT7=
EXTT8=
EXTT9=
PLAYORDER=
